<svg xmlns="http://www.w3.org/2000/svg" xmlns:xlink="http://www.w3.org/1999/xlink" width="500" zoomAndPan="magnify" viewBox="0 0 375 374.999991" height="500" preserveAspectRatio="xMidYMid meet" version="1.0"><defs><clipPath id="634a3b3d3c"><path d="M 81 75 L 324 75 L 324 313 L 81 313 Z M 81 75 " clip-rule="nonzero"/></clipPath><clipPath id="65d5f9b731"><path d="M 191.167969 7.667969 L 367.234375 183.738281 L 183.742188 367.230469 L 7.671875 191.160156 Z M 191.167969 7.667969 " clip-rule="nonzero"/></clipPath><clipPath id="ab742ee065"><path d="M 191.167969 7.667969 L 367.234375 183.738281 L 183.742188 367.230469 L 7.671875 191.160156 Z M 191.167969 7.667969 " clip-rule="nonzero"/></clipPath></defs><g clip-path="url(#634a3b3d3c)"><g clip-path="url(#65d5f9b731)"><g clip-path="url(#ab742ee065)"><path fill="#74a5ff" d="M 81.949219 263.671875 C 81.957031 264.832031 82.425781 265.914062 83.21875 266.707031 C 83.570312 267.058594 83.988281 267.355469 84.457031 267.574219 L 178.453125 311.097656 C 179.417969 311.546875 180.515625 311.621094 181.53125 311.308594 L 195.480469 307.050781 L 198.902344 310.816406 C 198.949219 310.867188 198.996094 310.917969 199.046875 310.96875 C 200.125 312.046875 201.699219 312.480469 203.1875 312.097656 L 242.652344 301.851562 C 242.695312 301.839844 242.730469 301.820312 242.773438 301.808594 C 242.921875 301.765625 243.066406 301.703125 243.210938 301.644531 C 243.332031 301.59375 243.457031 301.550781 243.570312 301.488281 C 243.695312 301.425781 243.8125 301.34375 243.929688 301.265625 C 244.046875 301.191406 244.164062 301.117188 244.273438 301.03125 C 244.382812 300.945312 244.476562 300.84375 244.578125 300.746094 C 244.675781 300.652344 244.777344 300.558594 244.863281 300.453125 C 244.957031 300.347656 245.03125 300.226562 245.113281 300.109375 C 245.191406 299.996094 245.273438 299.886719 245.339844 299.765625 C 245.40625 299.648438 245.457031 299.523438 245.507812 299.402344 C 245.570312 299.261719 245.632812 299.121094 245.679688 298.976562 C 245.691406 298.933594 245.714844 298.898438 245.726562 298.855469 L 248.78125 288.207031 L 265.59375 284.257812 C 265.644531 284.246094 265.691406 284.222656 265.738281 284.207031 C 265.894531 284.167969 266.042969 284.113281 266.191406 284.054688 C 266.3125 284.003906 266.429688 283.960938 266.546875 283.902344 C 266.675781 283.835938 266.796875 283.761719 266.917969 283.679688 C 267.039062 283.605469 267.15625 283.53125 267.265625 283.445312 C 267.371094 283.363281 267.46875 283.269531 267.566406 283.179688 C 267.679688 283.070312 267.785156 282.964844 267.886719 282.847656 C 267.921875 282.808594 267.964844 282.777344 267.996094 282.734375 L 322.625 213.800781 C 323.644531 212.511719 323.847656 210.757812 323.148438 209.269531 L 261.4375 78.277344 C 261.417969 78.230469 261.382812 78.191406 261.359375 78.144531 C 261.285156 78 261.199219 77.867188 261.113281 77.730469 C 261.042969 77.625 260.96875 77.519531 260.890625 77.417969 C 260.792969 77.300781 260.6875 77.191406 260.582031 77.082031 C 260.488281 76.992188 260.398438 76.898438 260.300781 76.816406 C 260.1875 76.71875 260.066406 76.636719 259.941406 76.550781 C 259.835938 76.480469 259.730469 76.410156 259.621094 76.347656 C 259.488281 76.273438 259.347656 76.214844 259.207031 76.15625 C 259.09375 76.105469 258.984375 76.058594 258.867188 76.019531 C 258.71875 75.972656 258.570312 75.9375 258.417969 75.90625 C 258.296875 75.878906 258.179688 75.855469 258.054688 75.839844 C 257.90625 75.820312 257.757812 75.816406 257.605469 75.8125 C 257.472656 75.8125 257.335938 75.808594 257.203125 75.820312 C 257.0625 75.832031 256.925781 75.855469 256.785156 75.878906 C 256.636719 75.90625 256.492188 75.933594 256.34375 75.976562 C 256.289062 75.992188 256.234375 75.996094 256.179688 76.011719 L 213.636719 89.945312 C 213.128906 90.109375 212.660156 90.367188 212.246094 90.707031 L 205.625 96.121094 L 192.46875 78.957031 C 192.410156 78.886719 192.34375 78.832031 192.285156 78.765625 C 192.242188 78.714844 192.195312 78.671875 192.152344 78.621094 C 191.996094 78.457031 191.832031 78.308594 191.65625 78.171875 C 191.621094 78.148438 191.585938 78.125 191.546875 78.097656 C 191.355469 77.960938 191.15625 77.835938 190.945312 77.730469 C 190.910156 77.714844 190.875 77.703125 190.839844 77.683594 C 190.621094 77.585938 190.402344 77.503906 190.175781 77.441406 C 190.132812 77.425781 190.089844 77.421875 190.046875 77.410156 C 189.816406 77.355469 189.589844 77.316406 189.359375 77.296875 C 189.3125 77.296875 189.269531 77.296875 189.222656 77.292969 C 188.980469 77.28125 188.742188 77.289062 188.503906 77.320312 C 188.46875 77.324219 188.433594 77.328125 188.398438 77.335938 C 188.144531 77.371094 187.890625 77.433594 187.644531 77.515625 C 187.632812 77.519531 187.621094 77.519531 187.605469 77.527344 L 148.21875 91.316406 C 147.011719 91.734375 146.050781 92.675781 145.601562 93.875 L 139.789062 109.304688 L 128.503906 101.773438 C 127.363281 101.007812 125.921875 100.835938 124.632812 101.304688 L 84.089844 116 C 82.367188 116.625 81.226562 118.261719 81.234375 120.089844 Z M 199.785156 102.722656 L 194.308594 107.195312 C 194.304688 107.195312 194.300781 107.199219 194.300781 107.199219 L 180.832031 118.191406 L 189.632812 89.480469 Z M 264.542969 273.167969 L 246.105469 234.367188 L 264.175781 215.285156 L 281.226562 252.121094 Z M 122.90625 167.449219 L 111.679688 201.582031 L 90.324219 208.164062 L 90.117188 166.402344 L 122.96875 154.820312 Z M 177.425781 128.410156 L 208.996094 119.449219 L 194.34375 132.492188 L 161.679688 141.261719 Z M 199.28125 135.816406 L 219.1875 118.09375 L 239.074219 161.058594 L 220.230469 179.902344 Z M 223.6875 114.089844 L 237.707031 101.609375 L 257.015625 143.117188 L 243.417969 156.714844 Z M 194.179688 138.507812 L 215.335938 183.035156 L 176.96875 194.582031 C 176.789062 194.636719 176.652344 194.753906 176.492188 194.835938 L 153.605469 149.402344 Z M 160.015625 266.183594 L 159.824219 264.121094 L 163.25 267.785156 Z M 154.160156 258.0625 C 153.792969 258.601562 153.570312 259.242188 153.636719 259.941406 L 153.9375 263.167969 L 126.527344 249.5625 L 125.277344 227.175781 Z M 117.554688 210.472656 L 153.410156 199.835938 L 180.410156 232.082031 L 147.597656 242.605469 Z M 157.59375 195.851562 L 162.230469 179.339844 L 190.128906 234.714844 Z M 158.386719 171.707031 L 152.0625 194.226562 L 116.722656 204.707031 L 128.0625 170.226562 L 153.636719 162.277344 Z M 109.496094 208.285156 C 109.472656 208.378906 109.460938 208.472656 109.445312 208.566406 C 109.433594 208.644531 109.410156 208.710938 109.402344 208.789062 C 109.375 209.125 109.40625 209.460938 109.492188 209.78125 C 109.5 209.808594 109.492188 209.832031 109.5 209.859375 C 109.527344 209.957031 109.582031 210.042969 109.621094 210.136719 C 109.664062 210.238281 109.699219 210.34375 109.753906 210.4375 C 109.835938 210.585938 109.9375 210.714844 110.042969 210.84375 C 110.085938 210.898438 110.113281 210.957031 110.15625 211.007812 L 119.554688 221.058594 C 119.351562 221.480469 119.210938 221.941406 119.238281 222.445312 L 120.742188 249.351562 L 90.578125 259.210938 L 90.351562 214.1875 Z M 123.511719 254.507812 L 149.570312 267.4375 L 122.761719 275.777344 L 96.144531 263.453125 Z M 157.046875 271.148438 L 171.089844 278.117188 C 171.730469 278.433594 172.429688 278.460938 173.074219 278.296875 L 175.164062 280.527344 C 175.167969 280.53125 175.171875 280.539062 175.175781 280.542969 C 175.175781 280.546875 175.183594 280.546875 175.183594 280.550781 L 178.964844 284.59375 L 156.394531 291.355469 L 130.558594 279.390625 Z M 151.953125 247.261719 L 184.40625 236.851562 L 201.46875 257.226562 L 206.460938 267.144531 L 178.121094 275.25 Z M 179.078125 199.96875 L 217.835938 188.304688 L 238.628906 232.0625 L 201.171875 243.824219 Z M 243.453125 228.785156 L 222.855469 185.425781 L 241.652344 166.628906 L 261.570312 209.65625 Z M 245.996094 162.289062 L 259.605469 148.679688 L 279.277344 190.960938 L 265.839844 205.152344 Z M 263.945312 144.335938 L 276.898438 131.386719 L 296.429688 172.847656 L 283.542969 186.457031 Z M 261.359375 138.773438 L 242.203125 97.605469 L 255.433594 85.828125 L 274.285156 125.847656 Z M 236.3125 95.128906 L 212.1875 101.921875 L 217.09375 97.910156 L 242.554688 89.574219 Z M 197.460938 112.058594 L 226.472656 103.886719 L 218.875 110.652344 L 188.683594 119.222656 Z M 172.789062 124.753906 L 147.613281 145.304688 C 147.34375 145.527344 147.125 145.789062 146.957031 146.078125 C 146.921875 146.136719 146.914062 146.203125 146.882812 146.265625 C 146.757812 146.519531 146.660156 146.777344 146.613281 147.050781 C 146.589844 147.164062 146.601562 147.28125 146.597656 147.398438 C 146.585938 147.636719 146.59375 147.871094 146.640625 148.109375 C 146.652344 148.167969 146.636719 148.226562 146.652344 148.285156 C 146.6875 148.421875 146.757812 148.542969 146.8125 148.671875 C 146.835938 148.722656 146.835938 148.78125 146.863281 148.832031 L 151.007812 157.058594 L 130.273438 163.503906 L 140.222656 133.253906 L 173.652344 121.9375 Z M 90.085938 160.300781 L 89.898438 123.089844 L 123.191406 111.027344 L 123 148.699219 Z M 164.285156 295.007812 L 183.363281 289.296875 L 192.390625 298.953125 L 180.589844 302.558594 Z M 182.542969 279.980469 L 209.101562 272.382812 L 218.742188 291.515625 C 218.882812 291.796875 219.0625 292.046875 219.277344 292.257812 C 219.96875 292.949219 220.980469 293.261719 221.972656 293.027344 L 231.53125 290.78125 L 235.183594 294.855469 L 204.019531 302.945312 Z M 239.589844 288.886719 L 239.101562 290.59375 L 237.925781 289.277344 Z M 244.339844 280.371094 C 244.285156 280.382812 244.234375 280.40625 244.183594 280.421875 C 244.027344 280.464844 243.882812 280.519531 243.734375 280.574219 C 243.613281 280.625 243.492188 280.675781 243.371094 280.734375 C 243.246094 280.796875 243.128906 280.871094 243.007812 280.949219 C 242.890625 281.023438 242.773438 281.097656 242.664062 281.183594 C 242.554688 281.269531 242.457031 281.363281 242.355469 281.457031 C 242.253906 281.554688 242.15625 281.652344 242.066406 281.757812 C 241.972656 281.859375 241.894531 281.972656 241.8125 282.085938 C 241.730469 282.203125 241.652344 282.316406 241.582031 282.441406 C 241.566406 282.464844 241.550781 282.484375 241.539062 282.507812 L 222.871094 286.894531 L 203.800781 249.039062 L 241.125 237.320312 L 259.847656 276.726562 Z M 285.234375 247.058594 L 268.441406 210.78125 L 281.890625 196.582031 L 297.925781 231.046875 Z M 286.15625 192.078125 L 299.066406 178.445312 L 314.183594 210.53125 L 301.933594 225.988281 Z M 184.078125 87.921875 L 175.734375 115.148438 L 142.472656 126.40625 L 144.890625 119.054688 C 144.929688 119.019531 144.964844 118.984375 145 118.949219 C 145.113281 118.835938 145.207031 118.703125 145.304688 118.578125 C 145.375 118.492188 145.453125 118.417969 145.515625 118.328125 C 145.523438 118.3125 145.527344 118.292969 145.539062 118.277344 C 145.613281 118.160156 145.671875 118.03125 145.738281 117.90625 C 145.808594 117.765625 145.886719 117.632812 145.945312 117.488281 C 145.949219 117.472656 145.957031 117.460938 145.964844 117.449219 L 152.984375 98.8125 Z M 128.761719 149.644531 L 128.949219 112.472656 L 138.820312 119.054688 Z M 128.761719 149.644531 " fill-opacity="1" fill-rule="nonzero"/></g></g></g></svg>